<?xml version="1.0" encoding="utf-8"?>
<!-- Generator: Adobe Illustrator 24.1.0, SVG Export Plug-In . SVG Version: 6.00 Build 0)  -->
<svg version="1.1" id="Capa_1" xmlns="http://www.w3.org/2000/svg" xmlns:xlink="http://www.w3.org/1999/xlink" x="0px" y="0px"
	 viewBox="0 0 512 512" style="enable-background:new 0 0 512 512;" xml:space="preserve">
<style type="text/css">
	.st0{fill:#50AAA0;}
	.st1{fill:#E9F6FF;}
	.st2{fill:#D9EDFF;}
	.st3{fill:#8CE1A4;}
	.st4{fill:#78C2A4;}
	.st5{fill:#FFFFFF;}
</style>
<g>
	<path class="st0" d="M82.6,330.3H66.1c-22.8,0-41.3-18.5-41.3-41.3c0-13.7,11.1-24.8,24.8-24.8h33L82.6,330.3L82.6,330.3z"/>
	<path class="st1" d="M396.4,0H90.8l-8.5,16.5V504h388.4l16.5-8.5V90.8L396.4,0z"/>
	<path class="st2" d="M90.8,470.7V0c-9.1,0-16.5,7.4-16.5,16.5v479c0,9.1,7.4,16.5,16.5,16.5h379.9c9.1,0,16.5-7.4,16.5-16.5H115.6
		C101.9,495.5,90.8,484.4,90.8,470.7L90.8,470.7z"/>
	<path class="st2" d="M487.2,89.4c0-4.4-1.7-8.6-4.8-11.7L409.5,4.8c-3.1-3.1-7.3-4.8-11.7-4.8h-1.4v82.6c0,4.6,3.7,8.3,8.3,8.3
		h82.6L487.2,89.4z"/>
	<path class="st3" d="M305.5,313.8h-256c-2.9,0-5.7-0.5-8.3-1.4l-8,13.3V430c0,13.7,11.1,24.8,24.8,24.8h247.4l16.5-8.8V330.3
		C322.1,321.2,314.7,313.8,305.5,313.8z"/>
	<path class="st4" d="M41.3,312.4c-9.6-3.4-16.5-12.6-16.5-23.4v148.6c0,13.7,11.1,24.8,24.8,24.8h256c9.1,0,16.5-7.4,16.5-16.5
		h-256c-13.7,0-24.8-11.1-24.8-24.8L41.3,312.4z"/>
	<path class="st3" d="M375,193.4l-33-33c-6.5-6.4-16.9-6.4-23.4,0l-46.1,46.1l-10.8-7.2l-20,7.7l-23.5,43.3l161.6-10.8V205
		C379.9,200.7,378.1,196.5,375,193.4L375,193.4z"/>
	<circle class="st5" cx="218.8" cy="136.3" r="28.9"/>
	<path class="st4" d="M191.6,256h180c4.6,0,8.3-3.7,8.3-8.3v-8.3H241.5c-7.4,0-11-8.9-5.8-14.1l26.1-26.1l-2.7-1.8
		c-6.6-4.4-15.3-3.5-20.8,2.1L188.7,249C186.1,251.6,188,256,191.6,256L191.6,256z"/>
	<g>
		<g>
			<path class="st5" d="M99.5,429.4H82.6v-86.3h16.9V429.4z"/>
			<path class="st5" d="M171.6,343.1h21.4v86.3h-14.8v-67l0.6,3.8l-16.5,53.6H148l-16.5-52.4l0.6-5v67h-14.8v-86.3h21.4l16.4,58.2
				L171.6,343.1z"/>
			<path class="st5" d="M273.5,381.1V398c0,6.4-1.3,12.1-3.9,17c-2.6,4.9-6.3,8.7-11,11.3s-10.3,4-16.5,4c-6.3,0-11.8-1.3-16.7-3.8
				c-4.8-2.5-8.5-6.1-11.2-10.7c-2.6-4.6-3.9-9.9-3.9-16v-25.5c0-6.4,1.3-12.1,3.9-16.9c2.6-4.9,6.3-8.6,11-11.3
				c4.8-2.7,10.3-4,16.5-4c5.1,0,9.9,1.1,14.2,3.2c4.4,2.1,8,5.1,10.9,9c2.9,3.9,4.9,8.4,5.9,13.5h-17.6c-0.6-1.8-1.6-3.4-2.9-4.7
				s-3-2.3-4.8-3c-1.8-0.7-3.8-1-5.7-1c-2.9,0-5.4,0.6-7.6,1.9c-2.2,1.3-3.9,3.1-5.1,5.4c-1.2,2.3-1.8,5-1.8,8.1v25.5
				c0,2.7,0.6,5.1,1.8,7.1c1.2,2.1,3,3.6,5.2,4.7c2.3,1.1,4.9,1.7,7.8,1.7c2.9,0,5.5-0.6,7.7-1.8c2.2-1.2,3.9-3,5.1-5.3
				c1.2-2.3,1.8-5,1.8-8.1v-1.4h-13.1v-15.7H273.5z"/>
		</g>
	</g>
</g>
</svg>
