<?xml version="1.0" encoding="utf-8"?>
<!-- Generator: Adobe Illustrator 24.1.0, SVG Export Plug-In . SVG Version: 6.00 Build 0)  -->
<svg version="1.1" id="Capa_1" xmlns="http://www.w3.org/2000/svg" xmlns:xlink="http://www.w3.org/1999/xlink" x="0px" y="0px"
	 viewBox="0 0 512 512" style="enable-background:new 0 0 512 512;" xml:space="preserve">
<style type="text/css">
	.st0{fill:#EFB245;}
	.st1{fill:#ECEAEC;}
	.st2{fill:#DAD8DB;}
	.st3{fill:#55606E;}
	.st4{fill:#D9DCDF;}
	.st5{fill:#C6CACF;}
	.st6{fill:#7B848F;}
	.st7{fill:#68727E;}
	.st8{fill:#FFCA61;}
	.st9{fill:#4FA9EA;}
	.st10{fill:#8E959F;}
	.st11{fill:#FFFFFF;}
</style>
<g>
	<path class="st0" d="M82.6,330.3H66.1c-22.8,0-41.3-18.5-41.3-41.3c0-13.7,11.1-24.8,24.8-24.8h33L82.6,330.3L82.6,330.3z"/>
	<path class="st1" d="M396.4,0H90.8l-8.5,16.5V504h388.4l16.5-8.5V90.8L396.4,0z"/>
	<path class="st2" d="M90.8,470.7V0c-9.1,0-16.5,7.4-16.5,16.5v479c0,9.1,7.4,16.5,16.5,16.5h379.9c9.1,0,16.5-7.4,16.5-16.5H115.6
		C101.9,495.5,90.8,484.4,90.8,470.7L90.8,470.7z"/>
	<path class="st2" d="M487.2,89.4c0-4.4-1.7-8.6-4.8-11.7L409.5,4.8c-3.1-3.1-7.3-4.8-11.7-4.8h-1.4v82.6c0,4.6,3.7,8.3,8.3,8.3
		h82.6L487.2,89.4z"/>
	<path class="st0" d="M41.3,312.4c-9.6-3.4-16.5-12.6-16.5-23.4v148.6c0,13.7,11.1,24.8,24.8,24.8h256c9.1,0,16.5-7.4,16.5-16.5
		h-256c-13.7,0-24.8-11.1-24.8-24.8L41.3,312.4z"/>
	<path class="st3" d="M313.3,337.5l-19.8-6.6v-36.5c0-4.7-3.8-8.5-8.5-8.5s-8.5,3.8-8.5,8.5v36.5l-19.8,6.6
		c-4.4,1.5-6.9,6.4-5.4,10.8c1.5,4.4,6.4,6.9,10.8,5.4l22.9-7.6l22.9,7.6c4.6,1.5,9.7-1.2,11-6C320,343.4,317.5,338.9,313.3,337.5z"
		/>
	<path class="st4" d="M413,302.9H157c-4.7,0-8.5-3.8-8.5-8.5V140.8h273.1v153.6C421.6,299.1,417.8,302.9,413,302.9z"/>
	<rect x="148.5" y="140.8" class="st5" width="273.1" height="25.6"/>
	<path class="st6" d="M430.1,149.3H140c-4.7,0-8.5-3.8-8.5-8.5v-34.1c0-4.7,3.8-8.5,8.5-8.5h290.1c4.7,0,8.5,3.8,8.5,8.5v34.1
		C438.6,145.5,434.8,149.3,430.1,149.3z"/>
	<path class="st7" d="M131.4,124v16.8c0,4.7,3.8,8.5,8.5,8.5h290.1c4.7,0,8.5-3.8,8.5-8.5V124L131.4,124L131.4,124z"/>
	<path class="st8" d="M318.6,226.1c0.4-2.8,0.6-5.6,0.6-8.5c0-33-26.7-59.7-59.7-59.7v68.3L318.6,226.1L318.6,226.1z"/>
	<path class="st9" d="M259.4,226.1v-68.3c-33,0-59.7,26.7-59.7,59.7s26.7,59.7,59.7,59.7c30.1,0,55-22.3,59.1-51.2L259.4,226.1
		L259.4,226.1z"/>
	<g>
		<path class="st10" d="M361.8,192h-25.6c-4.7,0-8.5-3.8-8.5-8.5s3.8-8.5,8.5-8.5h25.6c4.7,0,8.5,3.8,8.5,8.5S366.6,192,361.8,192z"
			/>
		<path class="st10" d="M361.8,226.1h-25.6c-4.7,0-8.5-3.8-8.5-8.5s3.8-8.5,8.5-8.5h25.6c4.7,0,8.5,3.8,8.5,8.5
			S366.6,226.1,361.8,226.1z"/>
		<path class="st10" d="M361.8,260.3h-25.6c-4.7,0-8.5-3.8-8.5-8.5s3.8-8.5,8.5-8.5h25.6c4.7,0,8.5,3.8,8.5,8.5
			S366.6,260.3,361.8,260.3z"/>
	</g>
	<path class="st8" d="M305.5,313.8h-256c-2.9,0-5.7-0.5-8.3-1.4l-8,13.3V430c0,13.7,11.1,24.8,24.8,24.8h247.4l16.5-8.8V330.3
		C322.1,321.2,314.7,313.8,305.5,313.8z"/>
	<g>
		<g>
			<path class="st11" d="M91.2,345h15.3v81H91.2V345z M98.2,379.9h25.9c1.8,0,3.4-0.4,4.8-1.3c1.4-0.8,2.5-2,3.3-3.5
				c0.8-1.5,1.2-3.3,1.2-5.2c0-2-0.4-3.8-1.1-5.3c-0.8-1.5-1.8-2.7-3.2-3.6c-1.4-0.8-3-1.3-4.9-1.3H98.2V345h25.5
				c5.1,0,9.5,1,13.3,3.1c3.8,2.1,6.8,5,8.9,8.7c2.1,3.8,3.2,8.1,3.2,13s-1.1,9.3-3.2,13c-2.1,3.7-5.1,6.6-8.9,8.7
				c-3.8,2-8.3,3.1-13.3,3.1H98.2V379.9z"/>
			<path class="st11" d="M162.3,345h15.3v81h-15.3V345z M169.2,379.9h25.9c1.8,0,3.4-0.4,4.8-1.3c1.4-0.8,2.5-2,3.3-3.5
				c0.8-1.5,1.2-3.3,1.2-5.2c0-2-0.4-3.8-1.1-5.3c-0.8-1.5-1.8-2.7-3.2-3.6c-1.4-0.8-3-1.3-4.9-1.3h-25.9V345h25.5
				c5.1,0,9.5,1,13.3,3.1c3.8,2.1,6.8,5,8.9,8.7c2.1,3.8,3.2,8.1,3.2,13s-1.1,9.3-3.2,13c-2.1,3.7-5.1,6.6-8.9,8.7
				c-3.8,2-8.3,3.1-13.3,3.1h-25.5V379.9z"/>
			<path class="st11" d="M222.2,345h59.4v14.7h-59.4V345z M244.2,351.6h15.3V426h-15.3V351.6z"/>
		</g>
	</g>
</g>
</svg>
