<svg id="Capa_1" enable-background="new 0 0 512 512" height="512" viewBox="0 0 512 512" width="512" xmlns="http://www.w3.org/2000/svg"><g><path d="m396.387 0h-305.548l-8.506 16.516v487.484h388.377l16.516-8.516v-404.645z" fill="#eceaec"/><path d="m82.581 330.323h-16.517c-22.804 0-41.29-18.486-41.29-41.29 0-13.682 11.092-24.774 24.774-24.774h33.032v66.064z" fill="#4b3f4e"/><path d="m90.839 470.71v-470.71c-9.121 0-16.516 7.394-16.516 16.516v478.968c0 9.122 7.395 16.516 16.516 16.516h379.871c9.121 0 16.516-7.395 16.516-16.516h-371.613c-13.683 0-24.774-11.092-24.774-24.774z" fill="#dad8db"/><path d="m487.226 89.421c0-4.38-1.74-8.581-4.838-11.679l-72.908-72.905c-3.097-3.097-7.298-4.837-11.678-4.837h-1.415v82.581c0 4.56 3.697 8.258 8.258 8.258h82.581z" fill="#dad8db"/><path d="m305.548 313.807h-256c-2.896 0-5.677-.497-8.261-1.411l-7.954 13.271v104.333c0 13.683 11.092 24.774 24.774 24.774h247.441l16.516-8.839v-115.612c0-9.122-7.394-16.516-16.516-16.516z" fill="#6f6571"/><path d="m41.29 312.396c-9.6-3.413-16.516-12.592-16.516-23.364v148.645c0 13.682 11.092 24.774 24.774 24.774h256c9.121 0 16.516-7.395 16.516-16.516h-256c-13.682 0-24.774-11.092-24.774-24.774z" fill="#5d5360"/><g fill="#fff"><path d="m186.854 385.78 18.267-25.929c2.629-3.726 1.734-8.879-1.992-11.504-3.734-2.633-8.879-1.738-11.508 1.996l-14.858 21.092-14.835-21.088c-2.629-3.726-7.774-4.633-11.508-2.004-3.734 2.625-4.629 7.774-2.008 11.504l18.244 25.934-21.575 30.626c-2.629 3.726-1.734 8.879 1.992 11.504 1.452 1.02 3.105 1.508 4.75 1.508 2.597 0 5.153-1.218 6.758-3.504l18.167-25.789 18.139 25.785c1.613 2.286 4.169 3.508 6.766 3.508 1.637 0 3.298-.488 4.742-1.504 3.734-2.625 4.629-7.774 2.008-11.504z"/><path d="m122.605 346.839h-36.484c-4.565 0-8.258 3.698-8.258 8.258s3.694 8.258 8.258 8.258h9.911v57.806c0 4.56 3.694 8.258 8.258 8.258 4.565 0 8.258-3.698 8.258-8.258v-57.806h10.056c4.565 0 8.258-3.698 8.258-8.258s-3.693-8.258-8.257-8.258z"/><path d="m267.355 346.839h-36.484c-4.565 0-8.258 3.698-8.258 8.258s3.694 8.258 8.258 8.258h9.911v57.806c0 4.56 3.694 8.258 8.258 8.258s8.258-3.698 8.258-8.258v-57.806h10.056c4.565 0 8.258-3.698 8.258-8.258s-3.693-8.258-8.257-8.258z"/></g><path d="m371.613 264.258h-181.678c-4.565 0-8.258-3.698-8.258-8.258s3.694-8.258 8.258-8.258h181.677c4.565 0 8.258 3.698 8.258 8.258s-3.693 8.258-8.257 8.258z" fill="#5d5360"/><path d="m371.613 222.968h-181.678c-4.565 0-8.258-3.698-8.258-8.258s3.694-8.258 8.258-8.258h181.677c4.565 0 8.258 3.698 8.258 8.258.001 4.56-3.693 8.258-8.257 8.258z" fill="#6f6571"/><path d="m371.613 181.677h-181.678c-4.565 0-8.258-3.698-8.258-8.258s3.694-8.258 8.258-8.258h181.677c4.565 0 8.258 3.698 8.258 8.258s-3.693 8.258-8.257 8.258z" fill="#5d5360"/><path d="m371.613 140.387h-181.678c-4.565 0-8.258-3.698-8.258-8.258s3.694-8.258 8.258-8.258h181.677c4.565 0 8.258 3.698 8.258 8.258.001 4.561-3.693 8.258-8.257 8.258z" fill="#6f6571"/></g></svg>