<?xml version="1.0" encoding="utf-8"?>
<!-- Generator: Adobe Illustrator 24.1.0, SVG Export Plug-In . SVG Version: 6.00 Build 0)  -->
<svg version="1.1" id="Capa_1" xmlns="http://www.w3.org/2000/svg" xmlns:xlink="http://www.w3.org/1999/xlink" x="0px" y="0px"
	 viewBox="0 0 512 512" style="enable-background:new 0 0 512 512;" xml:space="preserve">
<style type="text/css">
	.st0{fill:#BD4150;}
	.st1{fill:#ECEAEC;}
	.st2{fill:#DAD8DB;}
	.st3{fill:#E15F78;}
	.st4{fill:#DB4655;}
	.st5{fill:#A1A7AF;}
	.st6{fill:#55606E;}
	.st7{fill:#F79F4D;}
	.st8{fill:#FFC44F;}
	.st9{fill:#BF722A;}
	.st10{fill:#FFFFFF;}
</style>
<g>
	<path class="st0" d="M82.6,330.3H66.1c-22.8,0-41.3-18.5-41.3-41.3c0-13.7,11.1-24.8,24.8-24.8h33L82.6,330.3L82.6,330.3z"/>
	<path class="st1" d="M396.4,0H90.8l-8.5,16.5V504h388.4l16.5-8.5V90.8L396.4,0z"/>
	<path class="st2" d="M90.8,470.7V0c-9.1,0-16.5,7.4-16.5,16.5v479c0,9.1,7.4,16.5,16.5,16.5h379.9c9.1,0,16.5-7.4,16.5-16.5H115.6
		C101.9,495.5,90.8,484.4,90.8,470.7L90.8,470.7z"/>
	<path class="st2" d="M487.2,89.4c0-4.4-1.7-8.6-4.8-11.7L409.5,4.8c-3.1-3.1-7.3-4.8-11.7-4.8h-1.4v82.6c0,4.6,3.7,8.3,8.3,8.3
		h82.6L487.2,89.4z"/>
	<path class="st3" d="M305.5,313.8h-256c-2.9,0-5.7-0.5-8.3-1.4l-8,13.3V430c0,13.7,11.1,24.8,24.8,24.8h247.4l16.5-8.8V330.3
		C322.1,321.2,314.7,313.8,305.5,313.8z"/>
	<path class="st4" d="M41.3,312.4c-9.6-3.4-16.5-12.6-16.5-23.4v148.6c0,13.7,11.1,24.8,24.8,24.8h256c9.1,0,16.5-7.4,16.5-16.5
		h-256c-13.7,0-24.8-11.1-24.8-24.8L41.3,312.4z"/>
	<g>
		<path class="st5" d="M221.1,32.8c0,1.9-0.6,3.9-2,5.5l-42.7,51.2c-1.6,1.9-4,3.1-6.6,3.1s-4.9-1.1-6.6-3.1l-42.7-51.2
			c-3-3.6-2.5-9,1.1-12c3.6-3,9-2.5,12,1.1l36.1,43.3L206,27.3c3-3.6,8.4-4.1,12-1.1C220,27.9,221.1,30.3,221.1,32.8z"/>
		<g>
			<path class="st6" d="M204,135.2c0,4.7-3.8,8.5-8.5,8.5h-25.6c-4.7,0-8.5-3.8-8.5-8.5s3.8-8.5,8.5-8.5h25.6
				C200.2,126.6,204,130.4,204,135.2z"/>
			<path class="st6" d="M161.3,84V101h-17.1c-4.7,0-8.5,3.8-8.5,8.5c0,4.7,3.8,8.5,8.5,8.5h17.1v34.1h-17.1c-4.7,0-8.5,3.8-8.5,8.5
				s3.8,8.5,8.5,8.5h17.1v34.1h-17.1c-4.7,0-8.5,3.8-8.5,8.5c0,4.7,3.8,8.5,8.5,8.5h17.1v34.1h-17.1c-4.7,0-8.5,3.8-8.5,8.5
				c0,4.7,3.8,8.5,8.5,8.5h17.1v17.1c0,4.7,3.8,8.5,8.5,8.5c4.7,0,8.5-3.8,8.5-8.5v-42.7h17.1c4.7,0,8.5-3.8,8.5-8.5
				c0-4.7-3.8-8.5-8.5-8.5h-17.1v-34.1h17.1c4.7,0,8.5-3.8,8.5-8.5s-3.8-8.5-8.5-8.5h-17.1V84c0-4.7-3.8-8.5-8.5-8.5
				C165.2,75.4,161.3,79.2,161.3,84z"/>
			<path class="st6" d="M237.6,84c0,4.4-3.6,8-8,8h-59.7c-4.4,0-8-3.6-8-8s3.6-8,8-8h59.7C234,76,237.6,79.5,237.6,84z"/>
		</g>
		<path class="st7" d="M252.7,115.6L227.1,90c-3.3-3.3-3.3-8.7,0-12.1l25.6-25.6c1.6-1.6,3.8-2.5,6-2.5h90.3c4.7,0,8.5,3.8,8.5,8.5
			v51.2c0,4.7-3.8,8.5-8.5,8.5h-90.3C256.5,118.1,254.3,117.2,252.7,115.6z"/>
		<polygon class="st8" points="349.1,109.6 258.7,109.6 233.1,84 258.7,58.4 349.1,58.4 		"/>
		<g>
			<path class="st9" d="M340,84c0,4.4-3.6,8-8,8h-17.1c-4.4,0-8-3.6-8-8s3.6-8,8-8H332C336.4,76,340,79.5,340,84z"/>
			<path class="st9" d="M288.8,84c0,4.4-3.6,8-8,8h-17.1c-4.4,0-8-3.6-8-8s3.6-8,8-8h17.1C285.2,76,288.8,79.5,288.8,84z"/>
		</g>
	</g>
	<g>
		<g>
			<path class="st10" d="M156.4,355.2L119.7,413h37.8v16.2H99.8v-15.1l36.6-57.8h-35.5v-16.2h55.5V355.2z"/>
			<path class="st10" d="M187.8,429.2h-17.4v-89h17.4V429.2z"/>
			<path class="st10" d="M206.2,340.1H223v89h-16.8V340.1z M213.9,378.5h28.5c2,0,3.8-0.5,5.3-1.4c1.5-0.9,2.7-2.2,3.6-3.9
				c0.9-1.7,1.3-3.6,1.3-5.8c0-2.2-0.4-4.2-1.3-5.8c-0.8-1.7-2-3-3.6-3.9c-1.5-0.9-3.3-1.4-5.4-1.4h-28.5v-16.2h28
				c5.6,0,10.4,1.1,14.7,3.4c4.2,2.3,7.5,5.5,9.8,9.6c2.3,4.1,3.5,8.9,3.5,14.3c0,5.4-1.2,10.2-3.5,14.3c-2.3,4.1-5.6,7.3-9.8,9.5
				c-4.2,2.2-9.1,3.4-14.7,3.4h-28V378.5z"/>
		</g>
	</g>
</g>
</svg>
